# xmcd
#
# Track frame offsets:
# 150
# 10909
# 28483
# 42081
#
# Disc length: 738 seconds
#
#
# Revision: 0
# Processed by: cddbd v1.5.2PL0 Copyright (c) Steve Scherf et al.
# Submitted via: Nero 7, 11, 10, 0 
#
DISCID=2b02e004
DTITLE=Sugar Ray and The Bluetones - featuring Little Ronnie
DYEAR=1900
DGENRE=Blues
TTITLE0=Oh Baby
TTITLE1=Bite The Dust
TTITLE2=Frankie and Johnny
TTITLE3=You Better Be Sure
EXTD=
EXTT0=Oh Baby
EXTT1=Bite The Dust
EXTT2=Frankie and Johnny
EXTT3=You Better Be Sure
PLAYORDER=
